<svg width="193" height="125" viewBox="0 0 193 125" fill="none" xmlns="http://www.w3.org/2000/svg">
<path fill-rule="evenodd" clip-rule="evenodd" d="M0 0L0.980428 1.4232C3.55013 5.15342 7.98065 10.8282 12.9082 15.7143C15.3719 18.1573 17.9503 20.3935 20.4742 22.0903C23.0047 23.7916 25.4438 24.9255 27.6333 25.2111C39.1459 26.7127 49.2566 28.224 60.8659 36.8048C66.5831 41.0305 71.5466 47.4319 74.8808 53.2589C76.5492 56.1748 77.819 58.963 78.5727 61.2822C78.9092 62.3178 79.146 63.2693 79.2674 64.1031L84.4795 53.2779L77.4171 44.7022L97.5592 20.9448L118.737 44.7052L111.146 53.3088L115.185 63.632L115.579 60.0897L115.601 60.0313C117.373 55.3048 121.359 48.0699 127.572 41.6589C133.789 35.2445 142.261 29.6299 153.003 28.2111C164.318 26.7167 173.346 21.618 179.866 16.2152C186.395 10.8048 190.379 5.11538 191.617 2.49339L192.419 0.794301L192.567 2.66732C192.603 3.11734 192.576 3.81357 192.551 4.48687C192.547 4.5822 192.543 4.67707 192.54 4.77072C192.511 5.57179 192.497 6.26834 192.561 6.61741L192.583 6.74193L192.544 6.86222C191.169 11.0669 188.759 17.3002 185.91 23.1323C184.485 26.0487 182.946 28.8722 181.368 31.2947C181.008 31.8482 180.644 32.3822 180.279 32.8926C181.76 31.6632 183.305 30.3273 184.741 29.0327C186.228 27.6915 187.593 26.3999 188.646 25.3221C189.173 24.783 189.617 24.3013 189.959 23.8964C190.307 23.483 190.525 23.1768 190.621 22.9832C190.816 22.5944 191.174 22.1593 191.701 22.1979C192.246 22.2378 192.519 22.7444 192.633 23.1747C192.881 24.1108 192.728 25.7748 191.815 28.1388C190.081 32.6301 185.506 39.8993 174.918 50.1589C176.784 49.3183 179.044 48.2159 181.339 46.9445C184.831 45.0096 188.365 42.7032 190.715 40.3533L191.507 40.9478C189.658 44.309 186.238 49.5644 181.97 54.4363C178.403 58.5076 174.208 62.3535 169.809 64.5785C172.094 64.3819 174.922 63.9406 177.808 63.1257C182.017 61.9372 186.293 59.9704 189.204 56.8649L189.999 57.4621C186.927 62.6349 177.359 73.6156 162.762 78.1077C165.343 78.5179 168.744 78.8247 172.25 78.6947C176.825 78.5251 181.499 77.6146 184.78 75.2984L185.454 76.0256C181.566 80.7233 170.456 89.7108 155.989 89.7544C159.993 91.8131 167.97 94.2523 177.464 92.218L177.846 93.1229C175.049 94.9878 170.02 97.4867 163.975 98.9675C158.493 100.31 152.145 100.823 145.854 99.2394C147.396 100.627 149.539 102.274 152.042 103.711C155.451 105.666 159.489 107.207 163.569 107.207L163.727 108.181C158.915 109.785 147.193 111.455 136.98 106.085C138.051 107.734 139.588 109.75 141.472 111.628C144.04 114.187 147.208 116.448 150.677 117.219L150.591 118.206C148.836 118.286 146.158 118.29 143.65 118.057C142.396 117.94 141.172 117.763 140.121 117.502C140.099 117.496 140.076 117.491 140.054 117.485L147.276 124.707H111.786L110.16 121.997L107.834 119.207H106.143L114.484 112.534C113.317 109.043 111.58 103.987 110.024 99.7544C109.221 97.5689 108.468 95.6096 107.868 94.1996C107.567 93.4926 107.309 92.9354 107.106 92.5597C107.059 92.4718 107.016 92.3975 106.979 92.3359C106.937 92.3707 106.891 92.4113 106.839 92.4582C106.585 92.6883 106.25 93.0306 105.849 93.4669C105.05 94.3372 104.019 95.5478 102.904 96.9C100.676 99.6024 98.1297 102.848 96.465 105.012L95.9529 105.677L95.6118 104.91C92.6279 98.1962 86.1407 91.7976 82.7921 89.0305C81.8356 91.6028 79.8737 97.2768 78.0504 103.841C77.0929 107.288 77.8462 110.405 79.1967 112.92C80.5517 115.444 82.4963 117.338 83.857 118.298L85.144 119.207H83.2758L80.4948 121.988L79.4072 124.707H44.8616L52.0664 117.502L43.1622 119.198L42.8222 118.272C45.3038 116.866 49.0006 114.483 52.0196 111.914C53.5302 110.628 54.854 109.31 55.7715 108.057C56.4382 107.146 56.8599 106.311 57.0142 105.575C54.2305 107.022 49.9086 108.729 45.0594 109.624C39.7206 110.609 33.688 110.62 28.3592 108.161L26.6932 107.392L28.5189 107.209C31.8264 106.879 36.8076 106.01 40.9979 104.487C43.0948 103.725 44.9641 102.809 46.3247 101.736C47.4709 100.832 48.2162 99.8496 48.4755 98.7846C43.9365 99.3275 37.1795 99.6878 30.8469 99.0922C27.524 98.7796 24.2988 98.2021 21.5651 97.2394C18.8385 96.2792 16.5482 94.9171 15.1634 92.9996L14.4638 92.031L15.6447 92.2127C18.8689 92.7087 23.9043 93.1296 28.5188 92.7833C30.8267 92.61 33.0067 92.2463 34.7948 91.6165C36.2435 91.1062 37.3947 90.4355 38.1604 89.5859C34.2736 89.0188 28.5053 87.7922 22.8284 85.8037C16.7427 83.6721 10.6775 80.6363 7.18772 76.5307L6.16955 75.3328L7.69261 75.7225C11.2622 76.6356 16.8152 77.8306 21.8669 78.4481C24.3942 78.757 26.779 78.9191 28.7202 78.8339C29.6908 78.7913 30.5366 78.6873 31.2271 78.5149C31.491 78.449 31.7267 78.3745 31.9349 78.2923C27.6735 76.5594 21.5864 73.6965 16.0681 70.282C13.0963 68.4433 10.2779 66.4375 7.99567 64.3543C5.72009 62.2771 3.94193 60.0911 3.10145 57.8849L2.60433 56.5799L3.81676 57.2727C6.7189 58.9311 11.321 61.2939 15.6873 62.9908C17.8717 63.8397 19.9804 64.5153 21.779 64.8562C22.9839 65.0846 24.0016 65.1528 24.7964 65.0521C21.7639 63.2544 17.4617 60.2542 13.281 56.4256C8.60513 52.1436 4.04624 46.7936 1.60668 40.898L0.955922 39.3254L2.35389 40.2962C5.34947 42.3764 9.89063 45.4204 13.7791 47.7925C15.7255 48.9799 17.496 49.9913 18.823 50.6297C19.1578 50.7908 19.4585 50.9252 19.7225 51.0319C16.4337 47.589 11.9902 42.6021 8.27028 37.6965C6.21714 34.9889 4.37548 32.2945 3.06994 29.8908C1.77882 27.5137 0.95944 25.329 1.0698 23.6736L1.14309 22.5742L1.92224 23.3533C4.33411 25.7652 8.02451 29.3058 11.2575 32.0905C12.8764 33.485 14.367 34.678 15.5193 35.4454C15.8689 35.6782 16.1784 35.8657 16.4445 36.0066C13.7122 32.1861 9.94598 26.4162 6.71535 20.3803C3.2028 13.8177 0.274102 6.85256 0.0690736 1.72684L0 0ZM79.8616 121.207L81.8616 119.207H58.5687L58.4706 118.217C59.3025 118.05 60.3553 117.305 61.5989 115.936C62.8244 114.586 64.1694 112.704 65.5968 110.401C68.4503 105.798 71.5964 99.573 74.7391 92.7112C80.9718 79.1024 87.166 63.0434 91.004 52.3014L84.5284 44.2069H111.569L105.134 52.7868L128.488 114.402L134.494 119.207H109.136L110.803 121.207H138.308L130.644 113.993L106.997 53.115L113.913 44.716L97.5864 25.9881L82.7027 44.7128L89.1454 53.1379L64.9944 107.981L53.1854 121.207H79.8616ZM111.452 122.207L112.352 123.707H144.862L137.526 116.371C137.398 116.264 137.28 116.147 137.178 116.019L137.922 115.353L138.199 115.63C138.636 115.981 139.377 116.286 140.362 116.531C141.346 116.776 142.516 116.947 143.742 117.061C145.044 117.182 146.396 117.238 147.636 117.252C145.044 116.1 142.713 114.277 140.766 112.336C138.129 109.708 136.151 106.818 135.13 104.946L134.229 103.296L135.831 104.281C144.479 109.603 154.703 109.208 160.631 107.967C157.361 107.444 154.238 106.123 151.545 104.578C148.051 102.574 145.238 100.168 143.706 98.5507L144.223 97.7311C150.908 99.8941 157.809 99.4485 163.737 97.9962C168.259 96.8886 172.194 95.2004 175.007 93.6622C164.886 95.0374 156.792 91.6759 153.786 89.6195L152.317 88.614L154.095 88.7076C166.926 89.3829 177.319 82.6286 182.517 77.6839C179.427 79.0096 175.781 79.5645 172.287 79.694C167.632 79.8666 163.165 79.2865 160.462 78.6953L160.445 77.7225C173.275 74.4326 182.444 65.8927 186.966 60.0861C184.289 61.9436 181.138 63.2245 178.08 64.088C173.782 65.3014 169.611 65.7068 167.069 65.7068L166.905 64.7344C171.98 62.9778 176.992 58.6004 181.218 53.7774C184.427 50.1138 187.152 46.2281 189.073 43.1234C186.914 44.8208 184.339 46.4254 181.824 47.8192C178.3 49.7716 174.856 51.3305 172.754 52.1711L172.227 51.3421C184.201 40.1165 189.119 32.3452 190.883 27.7786C191.772 25.4765 191.832 24.0575 191.666 23.4307C191.648 23.3595 191.629 23.3071 191.612 23.2688C191.585 23.3049 191.553 23.3566 191.516 23.4305C191.363 23.7369 191.079 24.1191 190.723 24.541C190.36 24.9713 189.898 25.472 189.361 26.0209C188.289 27.119 186.907 28.426 185.41 29.7754C182.424 32.4678 178.957 35.3499 176.536 37.1014C176.309 37.2887 176.081 37.4617 175.852 37.6189C175.327 37.9798 174.942 38.2457 174.682 38.4266L174.109 37.6072C174.497 37.3331 175.129 36.8844 175.924 36.3099C177.421 35.0687 178.982 33.1258 180.53 30.7489C182.079 28.3714 183.597 25.5865 185.011 22.6933C187.813 16.9583 190.189 10.8274 191.557 6.66416C191.493 6.17236 191.516 5.4224 191.541 4.7343C191.541 4.72245 191.542 4.71062 191.542 4.6988C189.653 7.78129 185.929 12.4896 180.504 16.9852C173.876 22.4773 164.678 27.6778 153.134 29.2025C142.676 30.5838 134.398 36.0525 128.29 42.3548C122.204 48.634 118.297 55.7159 116.559 60.3243L116.016 65.2068H114.727L109.992 53.1049L117.4 44.7085L97.5781 22.4689L78.7202 44.7115L85.6578 53.1357L79.1255 66.7029C79.0896 66.7901 79.0489 66.8743 79.0028 66.955L78.1182 66.4899L78.2103 66.2986C78.358 65.921 78.4076 65.3284 78.3126 64.5118C78.2178 63.6971 77.9855 62.711 77.6217 61.5913C76.8943 59.3531 75.6566 56.6284 74.0128 53.7556C70.7226 48.0054 65.8429 41.7269 60.2715 37.6089C48.8807 29.1897 38.9914 27.701 27.504 26.2027C25.0936 25.8883 22.5034 24.6596 19.9163 22.9202C17.3224 21.1764 14.6946 18.8939 12.2041 16.4244C7.86533 12.1221 3.91451 7.22307 1.25149 3.53974C1.95735 8.20269 4.5103 14.1414 7.597 19.9084C11.0966 26.4467 15.2333 32.6768 17.9719 36.4112L18.2255 36.7571L17.9222 37.0604C17.7173 37.2653 17.4535 37.3177 17.2305 37.3115C17.0113 37.3055 16.7809 37.2434 16.5574 37.1585C16.1075 36.9876 15.5638 36.6765 14.965 36.2777C13.76 35.4753 12.2318 34.2496 10.6049 32.8482C7.74958 30.3888 4.54811 27.3516 2.17031 25.0084C2.40801 26.2135 3.02239 27.7081 3.94869 29.4135C5.22024 31.7546 7.02857 34.404 9.0671 37.0922C13.1429 42.4671 18.1032 47.9512 21.4266 51.3577L21.7092 51.6474L21.4847 51.9842C21.3052 52.2535 21.0131 52.3173 20.8119 52.3263C20.6024 52.3358 20.3702 52.2944 20.1394 52.2326C19.6714 52.1073 19.0721 51.8593 18.3894 51.5309C17.0164 50.8703 15.2118 49.8379 13.2583 48.6462C9.94455 46.6247 6.16624 44.1224 3.26204 42.1362C5.74084 47.2103 9.77374 51.8578 13.9564 55.6881C18.5766 59.9191 23.3445 63.1214 26.3115 64.7698L27.1402 65.2301L26.2923 65.6541C25.134 66.2332 23.4475 66.1903 21.5928 65.8387C19.7091 65.4817 17.5365 64.7823 15.3251 63.9229C11.5395 62.4517 7.59105 60.4922 4.69368 58.9079C5.5802 60.4646 6.95243 62.0481 8.66984 63.6157C10.8907 65.6429 13.6535 67.6121 16.5943 69.4317C22.4758 73.0709 29.0227 76.0831 33.2512 77.7414L34.0168 78.0416L33.3979 78.5831C32.9136 79.0069 32.2408 79.2925 31.4693 79.4851C30.6917 79.6793 29.7742 79.7886 28.7641 79.8329C26.7438 79.9217 24.2973 79.7526 21.7455 79.4407C17.3652 78.9053 12.6242 77.9425 9.09401 77.0987C12.5117 80.4008 17.7571 82.9678 23.159 84.86C29.1888 86.9721 35.3295 88.2149 39.1334 88.7111L39.8994 88.811L39.4945 89.4689C38.6086 90.9085 37.022 91.8922 35.127 92.5597C33.2244 93.2299 30.9482 93.6037 28.5936 93.7804C24.4773 94.0894 20.0526 93.8008 16.8158 93.3868C18.0521 94.5977 19.7955 95.556 21.8973 96.2962C24.5261 97.222 27.6633 97.7883 30.9405 98.0965C37.4944 98.7131 44.5309 98.2909 49.0044 97.711L49.6081 97.6328L49.5676 98.2401C49.4544 99.9373 48.4213 101.356 46.9439 102.521C45.4649 103.688 43.4843 104.647 41.3395 105.427C37.8108 106.709 33.7581 107.533 30.5613 107.972C35.1808 109.583 40.2535 109.494 44.8779 108.64C50.1028 107.676 54.701 105.746 57.3236 104.271L57.9967 103.892L58.0666 104.662C58.1835 105.948 57.5493 107.322 56.5784 108.648C55.5959 109.989 54.2071 111.365 52.6678 112.675C50.47 114.546 47.9301 116.312 45.7404 117.689L55.0709 115.912L47.2758 123.707H78.7302L79.3302 122.207H50.952L64.143 107.433L87.992 53.2758L81.4347 44.7009L97.5509 24.4256L115.224 44.6976L108.141 53.2987L131.494 113.42L140.829 122.207H111.452ZM191.552 23.1724C191.552 23.1722 191.554 23.1734 191.558 23.177C191.553 23.1744 191.552 23.1726 191.552 23.1724ZM108.994 118.207H131.643L127.65 115.012L104.004 52.6269L109.569 45.2069H86.609L92.1333 52.1122L92.0396 52.3748C88.2033 63.1331 81.9479 79.3726 75.6483 93.1276C72.4993 100.003 69.3329 106.272 66.4468 110.928C65.0044 113.255 63.6229 115.194 62.3393 116.608C61.7668 117.239 61.1998 117.781 60.6423 118.207H82.1393C80.8593 117.077 79.4084 115.429 78.3156 113.393C76.8745 110.709 76.0445 107.326 77.0869 103.573C79.0914 96.357 81.2631 90.2085 82.102 88.0274L82.3457 87.3938L82.8785 87.8144C85.9596 90.2468 92.7848 96.7266 96.1758 103.749C97.8279 101.614 100.109 98.7177 102.133 96.2638C103.251 94.9076 104.295 93.6807 105.113 92.7905C105.521 92.3467 105.879 91.978 106.167 91.7172C106.31 91.5877 106.446 91.475 106.569 91.3916C106.63 91.3499 106.699 91.3087 106.77 91.2763C106.835 91.247 106.941 91.2069 107.069 91.2069C107.267 91.2069 107.408 91.3083 107.471 91.3598C107.546 91.4208 107.61 91.4941 107.661 91.561C107.766 91.6969 107.875 91.8781 107.986 92.0844C108.212 92.5017 108.484 93.093 108.788 93.8079C109.398 95.2416 110.158 97.2198 110.963 99.4093C112.574 103.791 114.375 109.046 115.543 112.549L115.653 112.879L108.994 118.207ZM94.582 55.8399L95.0358 57.0285C96.7861 61.6128 99.3869 68.4897 101.5 74.2214C102.557 77.0867 103.493 79.6685 104.14 81.5353C104.463 82.4676 104.716 83.2272 104.876 83.7563C104.955 84.0184 105.016 84.236 105.05 84.3934C105.065 84.467 105.081 84.5537 105.085 84.6335C105.086 84.6658 105.088 84.7484 105.06 84.8408C105.045 84.8891 105.011 84.9772 104.929 85.0582C104.875 85.1121 104.809 85.1532 104.737 85.1783C104.695 85.2101 104.63 85.2659 104.539 85.3506C104.359 85.5191 104.112 85.7698 103.81 86.0892C103.209 86.7259 102.414 87.6113 101.544 88.5997C99.8056 90.5751 97.7831 92.9472 96.4511 94.5289L96.0623 94.9906L84.4943 80.7935L94.582 55.8399ZM85.643 80.6202L96.0753 93.4235C97.3951 91.8615 99.2105 89.7377 100.793 87.939C101.665 86.9482 102.47 86.0524 103.083 85.4027C103.389 85.0788 103.653 84.81 103.857 84.6198C103.92 84.5611 103.98 84.5066 104.037 84.4588C104.009 84.3515 103.97 84.2141 103.919 84.0461C103.765 83.5368 103.517 82.7925 103.195 81.8628C102.551 80.0056 101.618 77.4312 100.562 74.5673C98.6261 69.3171 96.2803 63.1032 94.5551 58.5745L85.643 80.6202Z" fill="#F46E0C"/>
</svg>
